<?xml version="1.0" standalone="no"?>
<!DOCTYPE svg PUBLIC "-//W3C//DTD SVG 20010904//EN"
 "http://www.w3.org/TR/2001/REC-SVG-20010904/DTD/svg10.dtd">
<svg version="1.0" xmlns="http://www.w3.org/2000/svg"
 width="500.000000pt" height="500.000000pt" viewBox="0 0 500.000000 500.000000"
 preserveAspectRatio="xMidYMid meet">
<metadata>
Created by potrace 1.14, written by Peter Selinger 2001-2017
</metadata>
<g transform="translate(0.000000,500.000000) scale(0.100000,-0.100000)"
fill="#000000" stroke="none">
<path d="M0 2500 l0 -2500 2500 0 2500 0 0 2500 0 2500 -2500 0 -2500 0 0
-2500z m3834 459 c35 -13 76 -39 104 -65 l46 -45 -99 -99 c-94 -94 -101 -99
-109 -78 -56 142 -100 210 -157 239 -44 22 -59 23 -93 8 -74 -34 -74 -213 0
-366 62 -129 186 -215 312 -217 37 -1 83 3 102 7 l35 8 -40 -36 c-22 -20 -80
-64 -130 -97 l-90 -60 -62 5 c-135 13 -257 99 -316 225 -30 64 -32 73 -32 187
0 109 2 125 27 177 89 191 307 281 502 207z m-3092 0 c29 -6 70 -20 90 -30 93
-47 110 -168 35 -247 -40 -42 -75 -61 -157 -83 l-65 -17 75 -2 c100 -1 165
-25 204 -73 26 -33 31 -47 31 -96 0 -69 -32 -123 -97 -166 -92 -61 -131 -68
-398 -73 l-245 -4 37 39 38 39 0 324 0 324 -37 38 -37 38 236 0 c137 0 259 -5
290 -11z m769 -59 c16 -19 52 -82 80 -140 57 -117 69 -119 69 -10 0 76 -18
113 -77 156 -58 43 -62 48 -17 26 52 -26 90 -71 104 -122 12 -44 25 -55 18
-15 -3 14 -3 25 -1 25 12 0 67 -140 71 -181 l5 -49 -32 0 c-46 0 -72 16 -68
43 2 12 2 16 0 10 -8 -22 -17 -14 -50 40 -18 28 -32 47 -33 42 0 -6 15 -33 34
-61 31 -48 32 -53 19 -78 l-14 -27 -52 47 c-142 128 -331 218 -497 237 -31 3
-30 4 10 5 124 5 361 -105 496 -230 34 -32 43 -36 48 -22 3 9 -2 28 -13 42
-10 15 -40 71 -66 125 -37 76 -60 109 -104 149 -41 38 -47 46 -23 32 49 -28
88 -73 127 -144 19 -36 35 -61 35 -56 0 24 -71 136 -115 180 -44 45 -46 48
-16 31 18 -11 46 -36 62 -55z m521 -232 c3 -284 4 -305 23 -338 18 -30 27 -35
63 -38 25 -2 50 3 65 13 l24 15 6 288 6 287 -37 38 -36 37 152 0 152 0 0 -367
0 -367 32 -33 32 -33 -152 0 -152 0 0 61 0 61 -51 -44 c-92 -78 -122 -98 -148
-98 -88 0 -168 58 -194 141 -14 43 -17 98 -17 332 l0 281 -32 33 -32 33 146 0
146 0 4 -302z m962 -9 c105 -170 194 -313 199 -316 13 -8 0 146 -20 227 -28
116 -108 266 -195 365 l-30 35 136 0 136 0 0 -400 0 -401 -101 3 -102 3 -191
312 -191 312 -3 -73 c-7 -172 65 -351 203 -504 l47 -52 -141 0 -141 0 0 336
c0 309 -1 338 -18 362 -10 15 -29 44 -41 65 l-23 37 144 0 143 0 189 -311z
m1656 139 c0 -95 -4 -168 -8 -163 -5 6 -38 57 -75 115 -97 155 -153 200 -249
200 l-28 0 0 -180 0 -180 31 0 c48 0 90 32 134 101 l40 63 3 -92 c1 -51 1
-132 0 -180 l-3 -87 -40 60 c-45 67 -94 105 -136 105 l-29 0 0 -186 0 -187 56
7 c98 11 130 40 234 206 85 135 80 138 80 -58 l0 -172 -330 0 c-181 0 -330 4
-330 8 0 5 14 21 30 37 l30 29 0 333 0 332 -30 23 c-16 12 -30 25 -30 30 0 4
146 8 325 8 l325 0 0 -172z m-3425 -1 c125 -43 239 -109 338 -197 35 -31 46
-47 42 -61 -5 -14 -2 -17 8 -13 9 3 25 -8 42 -28 29 -35 25 -22 -8 25 -16 24
-18 33 -8 54 9 19 16 23 29 17 9 -4 36 -9 60 -12 l44 -4 -7 -51 c-4 -28 -15
-73 -25 -101 l-18 -51 -12 33 c-7 18 -14 31 -16 29 -2 -2 1 -18 7 -36 8 -24 8
-39 -1 -61 -13 -31 -123 -140 -162 -161 l-22 -12 19 29 c43 65 65 118 64 158
-1 40 -2 40 -9 -11 -8 -57 -34 -104 -76 -143 -23 -22 -22 -18 9 25 19 28 40
67 45 89 12 40 6 92 -10 102 -6 4 -38 -21 -72 -54 -33 -33 -83 -74 -111 -91
-52 -33 -162 -72 -199 -70 -11 0 6 8 39 18 74 21 140 53 180 86 22 18 14 16
-30 -10 -62 -37 -171 -76 -209 -74 -11 0 6 8 39 18 81 23 145 55 214 107 53
39 118 111 110 118 -44 37 -124 45 -294 29 -107 -10 -171 -11 -212 -5 l-58 10
80 3 80 3 -70 6 -70 6 61 2 c34 1 128 9 208 17 133 14 153 14 209 0 33 -9 70
-23 80 -33 18 -16 20 -15 38 8 10 14 19 30 19 36 0 26 -149 133 -275 197 -75
37 -120 52 -225 73 l-65 13 65 -4 c36 -2 97 -15 135 -28z m-258 -273 c-3 -3
-12 -4 -19 -1 -8 3 -5 6 6 6 11 1 17 -2 13 -5z m3443 -694 l0 -200 -1955 0
-1955 0 0 200 0 200 1955 0 1955 0 0 -200z"/>
<path d="M520 2769 l0 -181 46 7 c59 8 80 22 99 61 20 42 20 183 1 229 -17 39
-60 65 -111 65 l-35 0 0 -181z"/>
<path d="M520 2381 l0 -191 33 0 c17 0 50 9 73 19 58 26 79 73 79 176 0 123
-37 173 -134 183 l-51 5 0 -192z"/>
<path d="M1697 2703 c-4 -26 -9 -58 -13 -70 -5 -18 -1 -23 21 -29 41 -10 48 6
31 71 -20 78 -32 87 -39 28z"/>
<path d="M1672 2690 c0 -14 2 -19 5 -12 2 6 2 18 0 25 -3 6 -5 1 -5 -13z"/>
<path d="M1655 2568 c-3 -8 11 -42 32 -77 41 -69 48 -67 59 16 6 50 6 50 -22
55 -16 3 -37 9 -46 13 -12 4 -20 2 -23 -7z"/>
<path d="M1348 2523 c18 -2 45 -2 60 0 15 2 0 4 -33 4 -33 0 -45 -2 -27 -4z"/>
<path d="M1248 2513 c12 -2 30 -2 40 0 9 3 -1 5 -23 4 -22 0 -30 -2 -17 -4z"/>
<path d="M1473 2506 c42 -16 67 -33 67 -49 0 -6 -26 -39 -57 -72 l-58 -60 66
63 65 63 14 -26 c7 -14 15 -23 18 -20 3 2 -3 16 -12 31 -17 25 -17 27 5 50 12
13 20 27 17 30 -4 3 -14 -6 -23 -20 l-17 -26 -42 25 c-24 14 -51 25 -62 25
-10 -1 -2 -7 19 -14z"/>
<path d="M1143 2503 c15 -2 37 -2 50 0 12 2 0 4 -28 4 -27 0 -38 -2 -22 -4z"/>
<path d="M1597 2485 c-17 -23 -17 -26 -1 -57 22 -42 21 -115 -1 -157 -9 -18
-14 -35 -12 -37 2 -3 28 21 57 53 48 52 52 60 47 95 -5 38 -51 128 -65 128 -4
0 -15 -12 -25 -25z"/>
<path d="M1185 1980 c-4 -11 -17 -31 -29 -43 -25 -25 -62 -115 -68 -163 -2
-16 -16 -43 -31 -59 -15 -17 -27 -35 -27 -42 0 -7 0 -16 -1 -20 -2 -20 20 -11
28 11 10 33 114 119 127 106 6 -6 16 -5 27 0 23 13 30 1 44 -70 11 -52 13 -55
43 -58 39 -4 40 3 7 34 -14 13 -25 33 -25 46 0 13 -3 33 -6 45 -5 18 -3 21 15
16 15 -4 21 -1 21 11 0 11 -9 16 -27 16 -21 0 -34 9 -50 34 -12 19 -19 37 -16
40 12 11 51 6 63 -9 16 -20 49 -19 57 1 9 24 -23 51 -45 38 -31 -20 -56 -2
-57 42 0 32 -4 40 -22 42 -14 2 -23 -3 -28 -18z"/>
<path d="M1575 1860 c0 -50 3 -60 18 -60 14 0 17 10 17 60 0 50 -3 60 -17 60
-15 0 -18 -10 -18 -60z"/>
<path d="M1643 1889 c8 -21 8 -37 0 -58 -9 -25 -8 -29 4 -24 8 3 19 16 24 29
10 28 -3 69 -24 77 -12 5 -13 1 -4 -24z"/>
<path d="M1870 1866 c10 -30 16 -57 13 -60 -4 -3 3 -6 15 -6 l21 0 -21 60
c-11 34 -26 60 -33 60 -11 0 -10 -11 5 -54z"/>
<path d="M2060 1904 c0 -8 5 -12 10 -9 6 3 10 10 10 16 0 5 -4 9 -10 9 -5 0
-10 -7 -10 -16z"/>
<path d="M2098 1860 c-2 -48 0 -60 12 -60 12 0 14 12 12 60 -2 33 -7 60 -12
60 -5 0 -10 -27 -12 -60z"/>
<path d="M2140 1911 c0 -6 5 -13 10 -16 6 -3 10 1 10 9 0 9 -4 16 -10 16 -5 0
-10 -4 -10 -9z"/>
<path d="M2350 1866 c10 -30 16 -57 13 -60 -4 -3 3 -6 15 -6 l21 0 -21 60
c-11 34 -26 60 -33 60 -11 0 -10 -11 5 -54z"/>
<path d="M2722 1908 c-19 -19 -14 -35 19 -58 19 -14 28 -28 24 -38 -4 -12 -3
-13 10 -2 23 19 18 38 -16 56 -23 11 -30 21 -26 35 6 22 5 23 -11 7z"/>
<path d="M2766 1905 c4 -8 8 -15 10 -15 2 0 4 7 4 15 0 8 -4 15 -10 15 -5 0
-7 -7 -4 -15z"/>
<path d="M2945 1860 c0 -47 3 -60 15 -60 12 0 14 12 12 60 -5 81 -27 81 -27 0z"/>
<path d="M2995 1884 c0 -37 6 -42 24 -20 13 15 6 42 -12 49 -8 3 -12 -8 -12
-29z"/>
<path d="M3187 1902 c-21 -23 -22 -66 -1 -86 8 -9 16 -16 17 -16 1 0 2 27 2
60 0 33 0 60 -1 60 0 0 -8 -8 -17 -18z"/>
<path d="M3245 1860 c0 -60 0 -61 18 -39 9 11 17 29 17 39 0 10 -8 28 -17 39
-18 22 -18 21 -18 -39z"/>
<path d="M3435 1860 c0 -47 3 -60 15 -60 12 0 14 12 12 60 -5 81 -27 81 -27 0z"/>
<path d="M3487 1899 c3 -10 0 -26 -7 -34 -10 -12 -9 -20 4 -40 9 -14 23 -25
32 -25 13 0 12 4 -4 28 -17 22 -17 29 -6 40 15 14 9 38 -11 45 -9 4 -11 -1 -8
-14z"/>
<path d="M3670 1905 c0 -8 2 -15 4 -15 2 0 6 7 10 15 3 8 1 15 -4 15 -6 0 -10
-7 -10 -15z"/>
<path d="M3705 1860 c0 -47 3 -60 15 -60 12 0 14 12 12 60 -5 81 -27 81 -27 0z"/>
<path d="M3750 1911 c0 -5 5 -13 10 -16 6 -3 10 -2 10 4 0 5 -4 13 -10 16 -5
3 -10 2 -10 -4z"/>
<path d="M2710 1816 c0 -9 5 -16 10 -16 6 0 10 4 10 9 0 6 -4 13 -10 16 -5 3
-10 -1 -10 -9z"/>
<path d="M1825 1810 c-3 -5 1 -10 10 -10 9 0 13 5 10 10 -3 6 -8 10 -10 10 -2
0 -7 -4 -10 -10z"/>
<path d="M2305 1810 c-3 -5 1 -10 10 -10 9 0 13 5 10 10 -3 6 -8 10 -10 10 -2
0 -7 -4 -10 -10z"/>
</g>
</svg>
